<mxfile host="app.diagrams.net" modified="2024-04-04T12:16:35.100Z" agent="Mozilla/5.0 (Windows NT 10.0; Win64; x64) AppleWebKit/537.36 (KHTML, like Gecko) Chrome/123.0.0.0 Safari/537.36" etag="bfhcOLLrFT3Uj6FraQUo" version="24.2.2" type="device">
  <diagram name="Page-1" id="wYFHbI6Q9f1BV_RmczOw">
    <mxGraphModel dx="1050" dy="1630" grid="1" gridSize="10" guides="1" tooltips="1" connect="1" arrows="1" fold="1" page="1" pageScale="1" pageWidth="850" pageHeight="1100" math="0" shadow="0">
      <root>
        <mxCell id="0" />
        <mxCell id="1" parent="0" />
        <UserObject label="" plantUmlData="{&quot;data&quot;:&quot;@startuml\nleft to right direction\nskinparam packageStyle rectangle\nactor EndUser as EU\nactor Admin as ADM\nrectangle Website {\n  usecase \&quot;View Products\&quot; as ViewProducts\n  usecase \&quot;Sign Up\&quot; as SignUp\n  usecase \&quot;Add to Cart\&quot; as AddToCart\n  usecase \&quot;View Cart\&quot; as ViewCart\n  usecase \&quot;Remove from Cart\&quot; as RemoveFromCart\n  usecase \&quot;View Total Amount\&quot; as ViewTotalAmount\n}\n\nrectangle AdminFunctions {\n  usecase \&quot;Add Products\&quot; as AddProducts\n  usecase \&quot;Update Products\&quot; as UpdateProducts\n  usecase \&quot;Delete Products\&quot; as DeleteProducts\n  usecase \&quot;Check Stock\&quot; as CheckStock\n  usecase \&quot;Check Orders\&quot; as CheckOrders\n  usecase \&quot;Manage Users\&quot; as ManageUsers\n}\n\nEU -- ViewProducts\nEU -- SignUp\nEU -- AddToCart\nEU -- ViewCart\nEU -- RemoveFromCart\nEU -- ViewTotalAmount\nADM -- AddProducts\nADM -- UpdateProducts\nADM -- DeleteProducts\nADM -- CheckStock\nADM -- CheckOrders\nADM -- ManageUsers\n\nViewProducts -- Website\nSignUp -- Website\nAddToCart -- Website\nViewCart -- Website\nRemoveFromCart -- Website\nViewTotalAmount -- Website\nManageUsers -- AdminFunctions\n@enduml\n&quot;,&quot;format&quot;:&quot;svg&quot;}" id="v_rlxrrogg67QcJhGCPh-1">
          <mxCell style="shape=image;noLabel=1;verticalAlign=top;aspect=fixed;imageAspect=0;image=data:image/svg+xml,PD94bWwgdmVyc2lvbj0iMS4wIiBlbmNvZGluZz0idXMtYXNjaWkiIHN0YW5kYWxvbmU9Im5vIj8+PHN2ZyB4bWxucz0iaHR0cDovL3d3dy53My5vcmcvMjAwMC9zdmciIHhtbG5zOnhsaW5rPSJodHRwOi8vd3d3LnczLm9yZy8xOTk5L3hsaW5rIiBjb250ZW50U3R5bGVUeXBlPSJ0ZXh0L2NzcyIgaGVpZ2h0PSI5MDlweCIgcHJlc2VydmVBc3BlY3RSYXRpbz0ibm9uZSIgc3R5bGU9IndpZHRoOjM0OHB4O2hlaWdodDo5MDlweDtiYWNrZ3JvdW5kOiNGRkZGRkY7IiB2ZXJzaW9uPSIxLjEiIHZpZXdCb3g9IjAgMCAzNDggOTA5IiB3aWR0aD0iMzQ4cHgiIHpvb21BbmRQYW49Im1hZ25pZnkiPjxkZWZzLz48Zz48IS0tY2x1c3RlciBXZWJzaXRlLS0+PGcgaWQ9ImNsdXN0ZXJfV2Vic2l0ZSI+PHJlY3QgZmlsbD0ibm9uZSIgaGVpZ2h0PSI0MjgiIHJ4PSIyLjUiIHJ5PSIyLjUiIHN0eWxlPSJzdHJva2U6IzE4MTgxODtzdHJva2Utd2lkdGg6MS4wOyIgd2lkdGg9IjI1MS43MiIgeD0iOTEiIHk9IjQ3NSIvPjx0ZXh0IGZpbGw9IiMwMDAwMDAiIGZvbnQtZmFtaWx5PSJzYW5zLXNlcmlmIiBmb250LXNpemU9IjE0IiBmb250LXdlaWdodD0iYm9sZCIgbGVuZ3RoQWRqdXN0PSJzcGFjaW5nIiB0ZXh0TGVuZ3RoPSI0OSIgeD0iMTkyLjM2IiB5PSI0OTAuMjM0NCI+V2Vic2l0ZTwvdGV4dD48L2c+PCEtLWNsdXN0ZXIgQWRtaW5GdW5jdGlvbnMtLT48ZyBpZD0iY2x1c3Rlcl9BZG1pbkZ1bmN0aW9ucyI+PHJlY3QgZmlsbD0ibm9uZSIgaGVpZ2h0PSI0MjgiIHJ4PSIyLjUiIHJ5PSIyLjUiIHN0eWxlPSJzdHJva2U6IzE4MTgxODtzdHJva2Utd2lkdGg6MS4wOyIgd2lkdGg9IjI0NC43MiIgeD0iOTgiIHk9IjciLz48dGV4dCBmaWxsPSIjMDAwMDAwIiBmb250LWZhbWlseT0ic2Fucy1zZXJpZiIgZm9udC1zaXplPSIxNCIgZm9udC13ZWlnaHQ9ImJvbGQiIGxlbmd0aEFkanVzdD0ic3BhY2luZyIgdGV4dExlbmd0aD0iOTkiIHg9IjE3MC44NiIgeT0iMjIuMjM0NCI+QWRtaW5GdW5jdGlvbnM8L3RleHQ+PC9nPjxnIGlkPSJlbGVtX1ZpZXdQcm9kdWN0cyI+PGVsbGlwc2UgY3g9IjE5NC41ODg0IiBjeT0iNTMxLjgxNzciIGZpbGw9IiNGMUYxRjEiIHJ4PSI2Ny4wODg0IiByeT0iMTUuODE3NyIgc3R5bGU9InN0cm9rZTojMTgxODE4O3N0cm9rZS13aWR0aDowLjU7Ii8+PHRleHQgZmlsbD0iIzAwMDAwMCIgZm9udC1mYW1pbHk9InNhbnMtc2VyaWYiIGZvbnQtc2l6ZT0iMTQiIGxlbmd0aEFkanVzdD0ic3BhY2luZyIgdGV4dExlbmd0aD0iOTIiIHg9IjE0OC41ODg0IiB5PSI1MzUuNTU5OSI+VmlldyBQcm9kdWN0czwvdGV4dD48L2c+PGcgaWQ9ImVsZW1fU2lnblVwIj48ZWxsaXBzZSBjeD0iMTk0LjYzMzUiIGN5PSI1OTcuMDk1NiIgZmlsbD0iI0YxRjFGMSIgcng9IjQ2LjEzMzUiIHJ5PSIxMy41OTU2IiBzdHlsZT0ic3Ryb2tlOiMxODE4MTg7c3Ryb2tlLXdpZHRoOjAuNTsiLz48dGV4dCBmaWxsPSIjMDAwMDAwIiBmb250LWZhbWlseT0ic2Fucy1zZXJpZiIgZm9udC1zaXplPSIxNCIgbGVuZ3RoQWRqdXN0PSJzcGFjaW5nIiB0ZXh0TGVuZ3RoPSI0OSIgeD0iMTcwLjEzMzUiIHk9IjYwMC44Mzc3Ij5TaWduIFVwPC90ZXh0PjwvZz48ZyBpZD0iZWxlbV9BZGRUb0NhcnQiPjxlbGxpcHNlIGN4PSIxOTQuNjY4NSIgY3k9IjY2MC4xMzM3IiBmaWxsPSIjRjFGMUYxIiByeD0iNjEuMTY4NSIgcnk9IjE0LjYzMzciIHN0eWxlPSJzdHJva2U6IzE4MTgxODtzdHJva2Utd2lkdGg6MC41OyIvPjx0ZXh0IGZpbGw9IiMwMDAwMDAiIGZvbnQtZmFtaWx5PSJzYW5zLXNlcmlmIiBmb250LXNpemU9IjE0IiBsZW5ndGhBZGp1c3Q9InNwYWNpbmciIHRleHRMZW5ndGg9Ijc3IiB4PSIxNTYuMTY4NSIgeT0iNjYzLjg3NTkiPkFkZCB0byBDYXJ0PC90ZXh0PjwvZz48ZyBpZD0iZWxlbV9WaWV3Q2FydCI+PGVsbGlwc2UgY3g9IjE5NC4zNjAzIiBjeT0iNzIzLjE3MjEiIGZpbGw9IiNGMUYxRjEiIHJ4PSI1Ni4zNjAzIiByeT0iMTMuNjcyMSIgc3R5bGU9InN0cm9rZTojMTgxODE4O3N0cm9rZS13aWR0aDowLjU7Ii8+PHRleHQgZmlsbD0iIzAwMDAwMCIgZm9udC1mYW1pbHk9InNhbnMtc2VyaWYiIGZvbnQtc2l6ZT0iMTQiIGxlbmd0aEFkanVzdD0ic3BhY2luZyIgdGV4dExlbmd0aD0iNjQiIHg9IjE2Mi4zNjAzIiB5PSI3MjYuOTE0MiI+VmlldyBDYXJ0PC90ZXh0PjwvZz48ZyBpZD0iZWxlbV9SZW1vdmVGcm9tQ2FydCI+PGVsbGlwc2UgY3g9IjE5NC4yOTYxIiBjeT0iNzg5LjE1OTIiIGZpbGw9IiNGMUYxRjEiIHJ4PSI3Ni4yOTYxIiByeT0iMTcuNjU5MiIgc3R5bGU9InN0cm9rZTojMTgxODE4O3N0cm9rZS13aWR0aDowLjU7Ii8+PHRleHQgZmlsbD0iIzAwMDAwMCIgZm9udC1mYW1pbHk9InNhbnMtc2VyaWYiIGZvbnQtc2l6ZT0iMTQiIGxlbmd0aEFkanVzdD0ic3BhY2luZyIgdGV4dExlbmd0aD0iMTE0IiB4PSIxMzcuMjk2MSIgeT0iNzkyLjkwMTQiPlJlbW92ZSBmcm9tIENhcnQ8L3RleHQ+PC9nPjxnIGlkPSJlbGVtX1ZpZXdUb3RhbEFtb3VudCI+PGVsbGlwc2UgY3g9IjE5NC4zMjU0IiBjeT0iODU5Ljc2NTEiIGZpbGw9IiNGMUYxRjEiIHJ4PSI3OS4zMjU0IiByeT0iMTguMjY1MSIgc3R5bGU9InN0cm9rZTojMTgxODE4O3N0cm9rZS13aWR0aDowLjU7Ii8+PHRleHQgZmlsbD0iIzAwMDAwMCIgZm9udC1mYW1pbHk9InNhbnMtc2VyaWYiIGZvbnQtc2l6ZT0iMTQiIGxlbmd0aEFkanVzdD0ic3BhY2luZyIgdGV4dExlbmd0aD0iMTIxIiB4PSIxMzMuODI1NCIgeT0iODYzLjUwNzMiPlZpZXcgVG90YWwgQW1vdW50PC90ZXh0PjwvZz48ZyBpZD0iZWxlbV9BZGRQcm9kdWN0cyI+PGVsbGlwc2UgY3g9IjE5NC4zODc4IiBjeT0iNjMuMTc3NiIgZmlsbD0iI0YxRjFGMSIgcng9IjYzLjg4NzgiIHJ5PSIxNS4xNzc2IiBzdHlsZT0ic3Ryb2tlOiMxODE4MTg7c3Ryb2tlLXdpZHRoOjAuNTsiLz48dGV4dCBmaWxsPSIjMDAwMDAwIiBmb250LWZhbWlseT0ic2Fucy1zZXJpZiIgZm9udC1zaXplPSIxNCIgbGVuZ3RoQWRqdXN0PSJzcGFjaW5nIiB0ZXh0TGVuZ3RoPSI4NCIgeD0iMTUyLjM4NzgiIHk9IjY2LjkxOTciPkFkZCBQcm9kdWN0czwvdGV4dD48L2c+PGcgaWQ9ImVsZW1fVXBkYXRlUHJvZHVjdHMiPjxlbGxpcHNlIGN4PSIxOTQuNDY2MyIgY3k9IjEyOS44OTMzIiBmaWxsPSIjRjFGMUYxIiByeD0iNzIuNDY2MyIgcnk9IjE2Ljg5MzMiIHN0eWxlPSJzdHJva2U6IzE4MTgxODtzdHJva2Utd2lkdGg6MC41OyIvPjx0ZXh0IGZpbGw9IiMwMDAwMDAiIGZvbnQtZmFtaWx5PSJzYW5zLXNlcmlmIiBmb250LXNpemU9IjE0IiBsZW5ndGhBZGp1c3Q9InNwYWNpbmciIHRleHRMZW5ndGg9IjEwNSIgeD0iMTQxLjk2NjMiIHk9IjEzMy42MzU1Ij5VcGRhdGUgUHJvZHVjdHM8L3RleHQ+PC9nPjxnIGlkPSJlbGVtX0RlbGV0ZVByb2R1Y3RzIj48ZWxsaXBzZSBjeD0iMTk0LjQ2NjMiIGN5PSIxOTguODkzMyIgZmlsbD0iI0YxRjFGMSIgcng9IjcyLjQ2NjMiIHJ5PSIxNi44OTMzIiBzdHlsZT0ic3Ryb2tlOiMxODE4MTg7c3Ryb2tlLXdpZHRoOjAuNTsiLz48dGV4dCBmaWxsPSIjMDAwMDAwIiBmb250LWZhbWlseT0ic2Fucy1zZXJpZiIgZm9udC1zaXplPSIxNCIgbGVuZ3RoQWRqdXN0PSJzcGFjaW5nIiB0ZXh0TGVuZ3RoPSIxMDUiIHg9IjE0MS45NjYzIiB5PSIyMDIuNjM1NSI+RGVsZXRlIFByb2R1Y3RzPC90ZXh0PjwvZz48ZyBpZD0iZWxlbV9DaGVja1N0b2NrIj48ZWxsaXBzZSBjeD0iMTk0LjY2ODUiIGN5PSIyNjYuMTMzNyIgZmlsbD0iI0YxRjFGMSIgcng9IjYxLjE2ODUiIHJ5PSIxNC42MzM3IiBzdHlsZT0ic3Ryb2tlOiMxODE4MTg7c3Ryb2tlLXdpZHRoOjAuNTsiLz48dGV4dCBmaWxsPSIjMDAwMDAwIiBmb250LWZhbWlseT0ic2Fucy1zZXJpZiIgZm9udC1zaXplPSIxNCIgbGVuZ3RoQWRqdXN0PSJzcGFjaW5nIiB0ZXh0TGVuZ3RoPSI3NyIgeD0iMTU2LjE2ODUiIHk9IjI2OS44NzU5Ij5DaGVjayBTdG9jazwvdGV4dD48L2c+PGcgaWQ9ImVsZW1fQ2hlY2tPcmRlcnMiPjxlbGxpcHNlIGN4PSIxOTQuMzg3OCIgY3k9IjMzMS4xNzc2IiBmaWxsPSIjRjFGMUYxIiByeD0iNjMuODg3OCIgcnk9IjE1LjE3NzYiIHN0eWxlPSJzdHJva2U6IzE4MTgxODtzdHJva2Utd2lkdGg6MC41OyIvPjx0ZXh0IGZpbGw9IiMwMDAwMDAiIGZvbnQtZmFtaWx5PSJzYW5zLXNlcmlmIiBmb250LXNpemU9IjE0IiBsZW5ndGhBZGp1c3Q9InNwYWNpbmciIHRleHRMZW5ndGg9Ijg0IiB4PSIxNTIuMzg3OCIgeT0iMzM0LjkxOTciPkNoZWNrIE9yZGVyczwvdGV4dD48L2c+PGcgaWQ9ImVsZW1fTWFuYWdlVXNlcnMiPjxlbGxpcHNlIGN4PSIxOTQuMzg3OCIgY3k9IjM5Ni4xNzc2IiBmaWxsPSIjRjFGMUYxIiByeD0iNjMuODg3OCIgcnk9IjE1LjE3NzYiIHN0eWxlPSJzdHJva2U6IzE4MTgxODtzdHJva2Utd2lkdGg6MC41OyIvPjx0ZXh0IGZpbGw9IiMwMDAwMDAiIGZvbnQtZmFtaWx5PSJzYW5zLXNlcmlmIiBmb250LXNpemU9IjE0IiBsZW5ndGhBZGp1c3Q9InNwYWNpbmciIHRleHRMZW5ndGg9Ijg0IiB4PSIxNTIuMzg3OCIgeT0iMzk5LjkxOTciPk1hbmFnZSBVc2VyczwvdGV4dD48L2c+PCEtLWVudGl0eSBFVS0tPjxnIGlkPSJlbGVtX0VVIj48ZWxsaXBzZSBjeD0iMzAuNSIgY3k9IjY2MiIgZmlsbD0iI0YxRjFGMSIgcng9IjgiIHJ5PSI4IiBzdHlsZT0ic3Ryb2tlOiMxODE4MTg7c3Ryb2tlLXdpZHRoOjAuNTsiLz48cGF0aCBkPSJNMzAuNSw2NzAgTDMwLjUsNjk3IE0xNy41LDY3OCBMNDMuNSw2NzggTTMwLjUsNjk3IEwxNy41LDcxMiBNMzAuNSw2OTcgTDQzLjUsNzEyICIgZmlsbD0ibm9uZSIgc3R5bGU9InN0cm9rZTojMTgxODE4O3N0cm9rZS13aWR0aDowLjU7Ii8+PHRleHQgZmlsbD0iIzAwMDAwMCIgZm9udC1mYW1pbHk9InNhbnMtc2VyaWYiIGZvbnQtc2l6ZT0iMTQiIGxlbmd0aEFkanVzdD0ic3BhY2luZyIgdGV4dExlbmd0aD0iNDkiIHg9IjYiIHk9IjcyNi43MzQ0Ij5FbmRVc2VyPC90ZXh0PjwvZz48IS0tZW50aXR5IEFETS0tPjxnIGlkPSJlbGVtX0FETSI+PGVsbGlwc2UgY3g9IjMwLjUiIGN5PSIyMDQiIGZpbGw9IiNGMUYxRjEiIHJ4PSI4IiByeT0iOCIgc3R5bGU9InN0cm9rZTojMTgxODE4O3N0cm9rZS13aWR0aDowLjU7Ii8+PHBhdGggZD0iTTMwLjUsMjEyIEwzMC41LDIzOSBNMTcuNSwyMjAgTDQzLjUsMjIwIE0zMC41LDIzOSBMMTcuNSwyNTQgTTMwLjUsMjM5IEw0My41LDI1NCAiIGZpbGw9Im5vbmUiIHN0eWxlPSJzdHJva2U6IzE4MTgxODtzdHJva2Utd2lkdGg6MC41OyIvPjx0ZXh0IGZpbGw9IiMwMDAwMDAiIGZvbnQtZmFtaWx5PSJzYW5zLXNlcmlmIiBmb250LXNpemU9IjE0IiBsZW5ndGhBZGp1c3Q9InNwYWNpbmciIHRleHRMZW5ndGg9IjM2IiB4PSIxMi41IiB5PSIyNjguNzM0NCI+QWRtaW48L3RleHQ+PC9nPjwhLS1saW5rIEVVIHRvIFZpZXdQcm9kdWN0cy0tPjxnIGlkPSJsaW5rX0VVX1ZpZXdQcm9kdWN0cyI+PHBhdGggZD0iTTM1LjM5LDY1My4yMSBDNDAuMiw2MjUuNDUgNTAuOTYsNTg4Ljc0IDc1LDU2NiBDOTAuNTUsNTUxLjI5IDExMi4wMyw1NDIuODkgMTMyLjQ0LDUzOC4xICIgZmlsbD0ibm9uZSIgaWQ9IkVVLVZpZXdQcm9kdWN0cyIgc3R5bGU9InN0cm9rZTojMTgxODE4O3N0cm9rZS13aWR0aDoxLjA7Ii8+PC9nPjwhLS1saW5rIEVVIHRvIFNpZ25VcC0tPjxnIGlkPSJsaW5rX0VVX1NpZ25VcCI+PHBhdGggZD0iTTUxLjE5LDY1My4yMyBDNTcuNjYsNjQzLjgyIDY1LjY0LDYzNC41NiA3NSw2MjggQzk3LjEyLDYxMi41IDEyNi40NSw2MDQuNzUgMTUwLjQsNjAwLjg4ICIgZmlsbD0ibm9uZSIgaWQ9IkVVLVNpZ25VcCIgc3R5bGU9InN0cm9rZTojMTgxODE4O3N0cm9rZS13aWR0aDoxLjA7Ii8+PC9nPjwhLS1saW5rIEVVIHRvIEFkZFRvQ2FydC0tPjxnIGlkPSJsaW5rX0VVX0FkZFRvQ2FydCI+PHBhdGggZD0iTTU1LjA2LDY4Ni40OSBDNzguOTMsNjgxLjkyIDExNi41MSw2NzQuNzMgMTQ2LjQ5LDY2OSAiIGZpbGw9Im5vbmUiIGlkPSJFVS1BZGRUb0NhcnQiIHN0eWxlPSJzdHJva2U6IzE4MTgxODtzdHJva2Utd2lkdGg6MS4wOyIvPjwvZz48IS0tbGluayBFVSB0byBWaWV3Q2FydC0tPjxnIGlkPSJsaW5rX0VVX1ZpZXdDYXJ0Ij48cGF0aCBkPSJNNTUuMDYsNjk1LjY1IEM3OS45OCw3MDAuNTggMTE5Ljg1LDcwOC40NSAxNTAuNDIsNzE0LjQ5ICIgZmlsbD0ibm9uZSIgaWQ9IkVVLVZpZXdDYXJ0IiBzdHlsZT0ic3Ryb2tlOiMxODE4MTg7c3Ryb2tlLXdpZHRoOjEuMDsiLz48L2c+PCEtLWxpbmsgRVUgdG8gUmVtb3ZlRnJvbUNhcnQtLT48ZyBpZD0ibGlua19FVV9SZW1vdmVGcm9tQ2FydCI+PHBhdGggZD0iTTUxLjMyLDcyOC41OCBDNTcuOCw3MzcuOTggNjUuNzQsNzQ3LjI5IDc1LDc1NCBDOTEuNSw3NjUuOTUgMTEyLjA4LDc3My44NiAxMzEuNDMsNzc5LjA3ICIgZmlsbD0ibm9uZSIgaWQ9IkVVLVJlbW92ZUZyb21DYXJ0IiBzdHlsZT0ic3Ryb2tlOiMxODE4MTg7c3Ryb2tlLXdpZHRoOjEuMDsiLz48L2c+PCEtLWxpbmsgRVUgdG8gVmlld1RvdGFsQW1vdW50LS0+PGcgaWQ9ImxpbmtfRVVfVmlld1RvdGFsQW1vdW50Ij48cGF0aCBkPSJNMzQuNDgsNzI4LjYxIEMzOC43OCw3NTguMzIgNDkuMzEsNzk4Ljg1IDc1LDgyNCBDODguNTIsODM3LjI0IDEwNi43NSw4NDUuNjMgMTI0Ljg1LDg1MC45NCAiIGZpbGw9Im5vbmUiIGlkPSJFVS1WaWV3VG90YWxBbW91bnQiIHN0eWxlPSJzdHJva2U6IzE4MTgxODtzdHJva2Utd2lkdGg6MS4wOyIvPjwvZz48IS0tbGluayBBRE0gdG8gQWRkUHJvZHVjdHMtLT48ZyBpZD0ibGlua19BRE1fQWRkUHJvZHVjdHMiPjxwYXRoIGQ9Ik0zMy42NywxOTUuMzQgQzM3LjQ4LDE2NC4yNyA0Ny43MiwxMjEuMTcgNzUsOTUgQzkwLjYxLDgwLjAzIDExMi40Nyw3MS45IDEzMy4xNyw2Ny41NCAiIGZpbGw9Im5vbmUiIGlkPSJBRE0tQWRkUHJvZHVjdHMiIHN0eWxlPSJzdHJva2U6IzE4MTgxODtzdHJva2Utd2lkdGg6MS4wOyIvPjwvZz48IS0tbGluayBBRE0gdG8gVXBkYXRlUHJvZHVjdHMtLT48ZyBpZD0ibGlua19BRE1fVXBkYXRlUHJvZHVjdHMiPjxwYXRoIGQ9Ik00OC40OSwxOTUuNCBDNTUuMjksMTgzLjkgNjQuMTMsMTcyLjE2IDc1LDE2NCBDOTEuNTIsMTUxLjYgMTEyLjQyLDE0My43MiAxMzIuMDYsMTM4LjcxICIgZmlsbD0ibm9uZSIgaWQ9IkFETS1VcGRhdGVQcm9kdWN0cyIgc3R5bGU9InN0cm9rZTojMTgxODE4O3N0cm9rZS13aWR0aDoxLjA7Ii8+PC9nPjwhLS1saW5rIEFETSB0byBEZWxldGVQcm9kdWN0cy0tPjxnIGlkPSJsaW5rX0FETV9EZWxldGVQcm9kdWN0cyI+PHBhdGggZD0iTTQ4LjUzLDIyOS40MyBDNzAuMDYsMjI0LjkxIDEwOC4xNCwyMTYuOTIgMTM5Ljg3LDIxMC4yNiAiIGZpbGw9Im5vbmUiIGlkPSJBRE0tRGVsZXRlUHJvZHVjdHMiIHN0eWxlPSJzdHJva2U6IzE4MTgxODtzdHJva2Utd2lkdGg6MS4wOyIvPjwvZz48IS0tbGluayBBRE0gdG8gQ2hlY2tTdG9jay0tPjxnIGlkPSJsaW5rX0FETV9DaGVja1N0b2NrIj48cGF0aCBkPSJNNDguNTMsMjM2LjQ3IEM3MS44NSwyNDEuMjIgMTE0LjU3LDI0OS45MiAxNDcuNjIsMjU2LjY2ICIgZmlsbD0ibm9uZSIgaWQ9IkFETS1DaGVja1N0b2NrIiBzdHlsZT0ic3Ryb2tlOiMxODE4MTg7c3Ryb2tlLXdpZHRoOjEuMDsiLz48L2c+PCEtLWxpbmsgQURNIHRvIENoZWNrT3JkZXJzLS0+PGcgaWQ9ImxpbmtfQURNX0NoZWNrT3JkZXJzIj48cGF0aCBkPSJNNDguNjUsMjY4LjE0IEM1NS41LDI3OS4wOCA2NC4zMywyOTAuMjggNzUsMjk4IEM5My4yNSwzMTEuMjEgMTE2LjU5LDMxOS4xMyAxMzcuNzEsMzIzLjg5ICIgZmlsbD0ibm9uZSIgaWQ9IkFETS1DaGVja09yZGVycyIgc3R5bGU9InN0cm9rZTojMTgxODE4O3N0cm9rZS13aWR0aDoxLjA7Ii8+PC9nPjwhLS1saW5rIEFETSB0byBNYW5hZ2VVc2Vycy0tPjxnIGlkPSJsaW5rX0FETV9NYW5hZ2VVc2VycyI+PHBhdGggZD0iTTM0LjY1LDI3MC41MyBDMzkuMDYsMjk5LjYyIDQ5LjY0LDMzOC45IDc1LDM2MyBDOTAuOTUsMzc4LjE1IDExMy4yNSwzODYuNDUgMTM0LjIsMzkwLjk2ICIgZmlsbD0ibm9uZSIgaWQ9IkFETS1NYW5hZ2VVc2VycyIgc3R5bGU9InN0cm9rZTojMTgxODE4O3N0cm9rZS13aWR0aDoxLjA7Ii8+PC9nPjwhLS1saW5rIFZpZXdQcm9kdWN0cyB0byBXZWJzaXRlLS0+PGcgaWQ9ImxpbmtfVmlld1Byb2R1Y3RzX1dlYnNpdGUiPjxwYXRoIGQ9Ik0yNDcuNzcsNTQxLjc5IEMyNjMsNTQ2Ljg0IDI3OC41OSw1NTQuNDggMjkwLDU2NiBDMzMxLjA5LDYwNy40OCAzMzMuOTIsNjg5LjM5IDMzNCw2OTEuOTQgIiBmaWxsPSJub25lIiBpZD0iVmlld1Byb2R1Y3RzLVdlYnNpdGUiIHN0eWxlPSJzdHJva2U6IzE4MTgxODtzdHJva2Utd2lkdGg6MS4wOyIvPjwvZz48IS0tbGluayBTaWduVXAgdG8gV2Vic2l0ZS0tPjxnIGlkPSJsaW5rX1NpZ25VcF9XZWJzaXRlIj48cGF0aCBkPSJNMjM0LjUyLDYwMy43OCBDMjUyLjcsNjA4LjM4IDI3My44Myw2MTUuODkgMjkwLDYyOCBDMzE2Ljc3LDY0OC4wNCAzMzIuOTcsNjg5LjMyIDMzMy45NSw2OTEuODggIiBmaWxsPSJub25lIiBpZD0iU2lnblVwLVdlYnNpdGUiIHN0eWxlPSJzdHJva2U6IzE4MTgxODtzdHJva2Utd2lkdGg6MS4wOyIvPjwvZz48IS0tbGluayBBZGRUb0NhcnQgdG8gV2Vic2l0ZS0tPjxnIGlkPSJsaW5rX0FkZFRvQ2FydF9XZWJzaXRlIj48cGF0aCBkPSJNMjM4Ljk0LDY3MC4wNCBDMjc4LjI5LDY3OS4xMyAzMzAuNjEsNjkxLjIyIDMzMy44NCw2OTEuOTYgIiBmaWxsPSJub25lIiBpZD0iQWRkVG9DYXJ0LVdlYnNpdGUiIHN0eWxlPSJzdHJva2U6IzE4MTgxODtzdHJva2Utd2lkdGg6MS4wOyIvPjwvZz48IS0tbGluayBWaWV3Q2FydCB0byBXZWJzaXRlLS0+PGcgaWQ9ImxpbmtfVmlld0NhcnRfV2Vic2l0ZSI+PHBhdGggZD0iTTIzNi4zMSw3MTMuODcgQzI3NS44OCw3MDUuMDEgMzMwLjQ2LDY5Mi43OSAzMzMuODQsNjkyLjA0ICIgZmlsbD0ibm9uZSIgaWQ9IlZpZXdDYXJ0LVdlYnNpdGUiIHN0eWxlPSJzdHJva2U6IzE4MTgxODtzdHJva2Utd2lkdGg6MS4wOyIvPjwvZz48IS0tbGluayBSZW1vdmVGcm9tQ2FydCB0byBXZWJzaXRlLS0+PGcgaWQ9ImxpbmtfUmVtb3ZlRnJvbUNhcnRfV2Vic2l0ZSI+PHBhdGggZD0iTTI0Ni45Miw3NzYuMiBDMjYxLjc3LDc3MC45MSAyNzcuMzcsNzYzLjY5IDI5MCw3NTQgQzMxNS45OCw3MzQuMDggMzMyLjkyLDY5NC41NyAzMzMuOTUsNjkyLjEyICIgZmlsbD0ibm9uZSIgaWQ9IlJlbW92ZUZyb21DYXJ0LVdlYnNpdGUiIHN0eWxlPSJzdHJva2U6IzE4MTgxODtzdHJva2Utd2lkdGg6MS4wOyIvPjwvZz48IS0tbGluayBWaWV3VG90YWxBbW91bnQgdG8gV2Vic2l0ZS0tPjxnIGlkPSJsaW5rX1ZpZXdUb3RhbEFtb3VudF9XZWJzaXRlIj48cGF0aCBkPSJNMjUyLjgyLDg0Ny4zMSBDMjY2LjQ0LDg0MiAyNzkuOTIsODM0LjUyIDI5MCw4MjQgQzMzMi4xMyw3ODAuMDYgMzMzLjk1LDY5NC43MiAzMzQsNjkyLjA2ICIgZmlsbD0ibm9uZSIgaWQ9IlZpZXdUb3RhbEFtb3VudC1XZWJzaXRlIiBzdHlsZT0ic3Ryb2tlOiMxODE4MTg7c3Ryb2tlLXdpZHRoOjEuMDsiLz48L2c+PCEtLWxpbmsgTWFuYWdlVXNlcnMgdG8gQWRtaW5GdW5jdGlvbnMtLT48ZyBpZD0ibGlua19NYW5hZ2VVc2Vyc19BZG1pbkZ1bmN0aW9ucyI+PHBhdGggZD0iTTI1OC42NywzOTYgQzI5NC4wNiwzOTYgMzMxLjU4LDM5NiAzMzMuODksMzk2ICIgZmlsbD0ibm9uZSIgaWQ9Ik1hbmFnZVVzZXJzLUFkbWluRnVuY3Rpb25zIiBzdHlsZT0ic3Ryb2tlOiMxODE4MTg7c3Ryb2tlLXdpZHRoOjEuMDsiLz48L2c+PCEtLVNSQz1bUlBGRFJlQ200OEpsVmVmTHhkYThiOTFSckFlOXhUY3JEeUcyUjZJUkxiTkxUb18tMklvNDZfRHZpOWJQcS1CRFdwVFdMTnR0ODlMNXVQTkhwM0xBenpwbzNkZWs2YnhablYtcTI2NlB3eGY1bmVLdDVhZWpBdVNNazhFb29nb0dkVEExNUNTcGNydzAzX25xb1lGeUNlMzFlVTBFT1ZVa3kxalVoUDYzeTZ1Tk5XaGEwUVpwZWNlRExIeXp1UmRnd01lWFBLWG51RFA3bndZbDlnWWRtb1BCSzZsNzZ0UmMyLTVjSkpTUjRwb0RSN0YzZ182eVhROHBXdnV0WlowbnppVDgyeDZTcXcxWm9zdlBIV1ludzY4NE1yTEtsVUhaYUdqaE9ibGs4eFF1VFlVc3ZKeFNLSkhteUtPcXFIYnJiQy1rNW9sSGtqY01ERk1Ua0h3bDNlR2hhZG05SDFyd0FJbE94dlNaSm9YRkU4YnZjQkVWb0RMeVBXeVRtZFdOeXJSSklIY2pjaWpxckwyY2YwckFTbDJDUTRQNml1TjVfMVVtNTkySUFJTTVad1lLQlZFa3RJR3FOSThWYk5nV3JfMFZdLS0+PC9nPjwvc3ZnPg==;" vertex="1" parent="1">
            <mxGeometry x="340" y="-120" width="348" height="909" as="geometry" />
          </mxCell>
        </UserObject>
      </root>
    </mxGraphModel>
  </diagram>
</mxfile>
